<svg width="83" height="23" viewBox="0 0 83 23" fill="none" xmlns="http://www.w3.org/2000/svg">
<path fill-rule="evenodd" clip-rule="evenodd" d="M2 3.86932C2 1.73235 3.6527 0 5.6914 0H19.7187C21.7574 0 23.4101 1.73235 23.4101 3.86932V16.3746C23.4101 18.5854 20.7411 19.5449 19.4467 17.7994L15.3998 12.3427V18.9597C15.3998 20.883 13.9124 22.4421 12.0775 22.4421H5.6914C3.6527 22.4421 2 20.7097 2 18.5728V3.86932ZM5.6914 3.09546C5.28366 3.09546 4.95312 3.44193 4.95312 3.86932V18.5728C4.95312 19.0001 5.28366 19.3466 5.6914 19.3466H12.1883C12.3921 19.3466 12.4467 19.1734 12.4467 18.9597V10.0863C12.4467 7.87547 15.1157 6.91596 16.4101 8.66142L20.457 14.1182V3.86932C20.457 3.44193 20.4956 3.09546 20.0879 3.09546H5.6914Z" fill="#00E0D9"/>
<path fill-rule="evenodd" clip-rule="evenodd" d="M2 3.86932C2 1.73235 3.6527 0 5.6914 0H19.7187C21.7574 0 23.4101 1.73235 23.4101 3.86932V16.3746C23.4101 18.5854 20.7411 19.5449 19.4467 17.7994L15.3998 12.3427V18.9597C15.3998 20.883 13.9124 22.4421 12.0775 22.4421H5.6914C3.6527 22.4421 2 20.7097 2 18.5728V3.86932ZM5.6914 3.09546C5.28366 3.09546 4.95312 3.44193 4.95312 3.86932V18.5728C4.95312 19.0001 5.28366 19.3466 5.6914 19.3466H12.1883C12.3921 19.3466 12.4467 19.1734 12.4467 18.9597V10.0863C12.4467 7.87547 15.1157 6.91596 16.4101 8.66142L20.457 14.1182V3.86932C20.457 3.44193 20.4956 3.09546 20.0879 3.09546H5.6914Z" fill="url(#paint0_linear_18_13886)"/>
<path fill-rule="evenodd" clip-rule="evenodd" d="M2 3.86932C2 1.73235 3.6527 0 5.6914 0H19.7187C21.7574 0 23.4101 1.73235 23.4101 3.86932V16.3746C23.4101 18.5854 20.7411 19.5449 19.4467 17.7994L15.3998 12.3427V18.9597C15.3998 20.883 13.9124 22.4421 12.0775 22.4421H5.6914C3.6527 22.4421 2 20.7097 2 18.5728V3.86932ZM5.6914 3.09546C5.28366 3.09546 4.95312 3.44193 4.95312 3.86932V18.5728C4.95312 19.0001 5.28366 19.3466 5.6914 19.3466H12.1883C12.3921 19.3466 12.4467 19.1734 12.4467 18.9597V10.0863C12.4467 7.87547 15.1157 6.91596 16.4101 8.66142L20.457 14.1182V3.86932C20.457 3.44193 20.4956 3.09546 20.0879 3.09546H5.6914Z" fill="url(#paint1_linear_18_13886)" fill-opacity="0.4"/>
<path d="M19.7186 0C21.7573 0 23.41 1.73235 23.41 3.86932V16.3746C23.41 18.5854 20.741 19.5449 19.4465 17.7994L15.3997 12.3427V18.9597C15.3997 20.883 13.9122 22.4421 12.0774 22.4421C12.2813 22.4421 12.4465 22.2688 12.4465 22.0551V10.0863C12.4465 7.87547 15.1155 6.91596 16.41 8.66142L20.4569 14.1182V0.773865C20.4569 0.346471 20.1263 0 19.7186 0Z" fill="#63F655"/>
<path d="M40.6661 6.4209V12.2908L35.2363 6.4209H32.4102V16.0211H34.9877V9.71241L40.9017 16.0211H43.2437V6.4209H40.6661Z" fill="#1A1A1A"/>
<path d="M48.0218 13.8817V12.181H53.7918V10.1376H48.0218V8.56038H55.0217V6.4209H45.3919V16.0211H55.1656V13.8817H48.0218Z" fill="#1A1A1A"/>
<path d="M62.015 16.3366C65.6392 16.3366 67.9944 14.4714 67.9944 11.221C67.9944 7.97066 65.6392 6.10547 62.015 6.10547C58.3907 6.10547 56.0487 7.97066 56.0487 11.221C56.0487 14.4714 58.3907 16.3366 62.015 16.3366ZM62.015 14.0599C60.0001 14.0599 58.7571 13.0313 58.7571 11.221C58.7571 9.41069 60.0131 8.38209 62.015 8.38209C64.0299 8.38209 65.2729 9.41069 65.2729 11.221C65.2729 13.0313 64.0299 14.0599 62.015 14.0599Z" fill="#1A1A1A"/>
<path d="M77.8737 6.4209V12.2908L72.4438 6.4209H69.6177V16.0211H72.1952V9.71241L78.1092 16.0211H80.4512V6.4209H77.8737Z" fill="#1A1A1A"/>
<defs>
<linearGradient id="paint0_linear_18_13886" x1="23.4101" y1="22.4421" x2="3.57912" y2="0.926192" gradientUnits="userSpaceOnUse">
<stop stop-color="#62F755"/>
<stop offset="1" stop-color="#8FF986" stop-opacity="0"/>
</linearGradient>
<linearGradient id="paint1_linear_18_13886" x1="23.4101" y1="22.4421" x2="10.5413" y2="17.6667" gradientUnits="userSpaceOnUse">
<stop stop-opacity="0.9"/>
<stop offset="1" stop-color="#1A1A1A" stop-opacity="0"/>
</linearGradient>
</defs>
</svg>
